<svg width="1920" height="600" viewBox="0 0 1920 600" fill="none" xmlns="http://www.w3.org/2000/svg">
<rect width="1920" height="600" fill="url(#paint0_linear_9056_4958)"/>
<g clip-path="url(#clip0_9056_4958)">
<g opacity="0.7" filter="url(#filter0_fn_9056_4958)">
<path d="M-55.4036 656.142L-62.1743 656.114L-76.7104 507.296C-76.3629 478.349 -67.655 449.908 -51.9734 424.243C-36.2918 398.578 -13.6372 375.688 14.6052 357.845C39.3253 342.226 69.0419 330.478 101.53 323.108C134.019 315.738 169.279 312.744 205.085 314.633C212.659 315.017 220.21 315.605 227.689 316.29C235.167 316.974 242.572 317.753 249.853 318.52C269.432 320.581 288.468 322.585 307.279 322.672C326.089 322.759 344.674 320.928 363.349 315.318C376.347 311.414 388.65 306.113 400.51 300.169C412.369 294.224 423.786 287.637 435.012 281.16C450.669 272.125 466.592 262.937 483.517 255.671C500.442 248.405 518.367 243.061 538.03 241.714C557.917 240.351 577.246 243.402 596.138 248.597C615.03 253.793 633.487 261.134 651.632 268.354C665.833 274.003 680.274 279.749 694.882 284.427C709.49 289.105 724.262 292.714 739.123 294.089C782.947 298.146 824.253 282.636 860.946 259.428C897.638 236.22 929.717 205.314 955.086 178.576C957.524 176.006 959.956 173.431 962.384 170.853C964.812 168.275 967.236 165.694 969.659 163.114C995.081 136.051 1020.94 108.527 1050.09 85.3072C1079.24 62.0877 1111.69 43.1726 1150.3 33.3269C1191.32 22.9242 1234.02 24.4501 1276.94 32.5998C1319.85 40.7496 1362.98 55.5221 1404.84 71.6126L1408.09 72.8641L1411.35 74.1157C1450.7 89.2536 1488.97 103.972 1527.67 115.393C1566.37 126.815 1605.51 134.938 1646.61 136.887C1687.19 138.811 1727.78 133.792 1765.77 122.597C1803.75 111.402 1839.13 94.0316 1869.31 71.2497C1900.77 47.5003 1926.34 17.9098 1944.44 -14.6418C1962.53 -47.1939 1973.15 -82.7076 1974.68 -118.305L1985.92 -77.3517L1995.98 30.8815C1994.37 68.1816 1983.27 105.383 1964.34 139.471C1945.4 173.56 1918.64 204.535 1885.73 229.382C1854.24 253.152 1817.34 271.277 1777.74 282.959C1738.15 294.64 1695.85 299.878 1653.57 297.872C1611.28 295.866 1571.28 287.611 1531.87 276.019C1492.47 264.427 1453.65 249.497 1413.73 234.141L1410.48 232.89L1407.22 231.639C1366.5 215.986 1324.6 201.6 1283.14 193.598C1241.68 185.596 1200.66 183.979 1161.66 193.867C1125.06 203.201 1094.53 220.888 1066.67 243.135C1038.81 265.383 1013.63 292.189 987.733 319.761C985.301 322.349 982.87 324.937 980.435 327.523C978 330.109 975.562 332.692 973.116 335.269C946.75 363.059 913.324 395.17 874.739 419.247C836.154 443.325 792.412 459.37 745.419 455.026C729.5 453.552 713.951 449.795 698.712 444.947C683.473 440.099 668.543 434.159 653.865 428.319C635.68 421.085 618 414.049 600.315 409.135C582.629 404.221 564.939 401.428 546.734 402.678C528.781 403.909 512.421 408.784 496.641 415.607C480.861 422.43 465.661 431.201 450.028 440.221C438.449 446.901 426.674 453.695 414.342 459.856C402.011 466.017 389.124 471.544 375.321 475.69C355.212 481.73 335.1 483.691 315.151 483.63C295.203 483.57 275.418 481.487 255.964 479.437C248.782 478.681 241.478 477.912 234.125 477.239C226.772 476.565 219.369 475.988 211.991 475.613C177.671 473.806 143.939 476.639 112.916 483.633C81.8934 490.627 53.579 501.782 30.095 516.62C3.65107 533.328 -17.5617 554.721 -32.2446 578.682C-46.9275 602.641 -55.0799 629.168 -55.4036 656.142Z" fill="url(#paint1_linear_9056_4958)"/>
</g>
<g clip-path="url(#clip1_9056_4958)">
<g opacity="0.88">
<g filter="url(#filter1_ddddf_9056_4958)">
<path d="M413 158.024C413 212.14 369.137 256.024 315 256.024C260.885 256.024 217 212.14 217 158.024C217 103.909 260.863 60.0242 315 60.0242C369.137 60.0458 413 103.909 413 158.024Z" fill="url(#paint2_linear_9056_4958)"/>
<path d="M413 158.024C413 212.14 369.137 256.024 315 256.024C260.885 256.024 217 212.14 217 158.024C217 103.909 260.863 60.0242 315 60.0242C369.137 60.0458 413 103.909 413 158.024Z" fill="url(#paint3_radial_9056_4958)" fill-opacity="0.3"/>
<path d="M413 158.024C413 212.14 369.137 256.024 315 256.024C260.885 256.024 217 212.14 217 158.024C217 103.909 260.863 60.0242 315 60.0242C369.137 60.0458 413 103.909 413 158.024Z" fill="url(#paint4_linear_9056_4958)" fill-opacity="0.2"/>
</g>
<g filter="url(#filter2_ddddf_9056_4958)">
<path d="M193 406.024C193 441.365 164.355 470.024 129 470.024C93.6595 470.024 65 441.365 65 406.024C65 370.684 93.6454 342.024 129 342.024C164.355 342.038 193 370.684 193 406.024Z" fill="url(#paint5_linear_9056_4958)"/>
<path d="M193 406.024C193 441.365 164.355 470.024 129 470.024C93.6595 470.024 65 441.365 65 406.024C65 370.684 93.6454 342.024 129 342.024C164.355 342.038 193 370.684 193 406.024Z" fill="url(#paint6_radial_9056_4958)" fill-opacity="0.3"/>
<path d="M193 406.024C193 441.365 164.355 470.024 129 470.024C93.6595 470.024 65 441.365 65 406.024C65 370.684 93.6454 342.024 129 342.024C164.355 342.038 193 370.684 193 406.024Z" fill="url(#paint7_linear_9056_4958)" fill-opacity="0.2"/>
</g>
</g>
<g filter="url(#filter3_ddddf_9056_4958)">
<path d="M1865 203.927C1865 229.328 1844.41 249.927 1819 249.927C1793.6 249.927 1773 229.328 1773 203.927C1773 178.526 1793.59 157.927 1819 157.927C1844.41 157.937 1865 178.526 1865 203.927Z" fill="url(#paint8_linear_9056_4958)"/>
<path d="M1865 203.927C1865 229.328 1844.41 249.927 1819 249.927C1793.6 249.927 1773 229.328 1773 203.927C1773 178.526 1793.59 157.927 1819 157.927C1844.41 157.937 1865 178.526 1865 203.927Z" fill="url(#paint9_radial_9056_4958)" fill-opacity="0.3"/>
<path d="M1865 203.927C1865 229.328 1844.41 249.927 1819 249.927C1793.6 249.927 1773 229.328 1773 203.927C1773 178.526 1793.59 157.927 1819 157.927C1844.41 157.937 1865 178.526 1865 203.927Z" fill="url(#paint10_linear_9056_4958)" fill-opacity="0.2"/>
</g>
<g filter="url(#filter4_ddddf_9056_4958)">
<path d="M1773 435.024C1773 498.527 1721.53 550.024 1658 550.024C1594.5 550.024 1543 498.527 1543 435.024C1543 371.522 1594.47 320.024 1658 320.024C1721.53 320.05 1773 371.522 1773 435.024Z" fill="url(#paint11_linear_9056_4958)"/>
<path d="M1773 435.024C1773 498.527 1721.53 550.024 1658 550.024C1594.5 550.024 1543 498.527 1543 435.024C1543 371.522 1594.47 320.024 1658 320.024C1721.53 320.05 1773 371.522 1773 435.024Z" fill="url(#paint12_radial_9056_4958)" fill-opacity="0.3"/>
<path d="M1773 435.024C1773 498.527 1721.53 550.024 1658 550.024C1594.5 550.024 1543 498.527 1543 435.024C1543 371.522 1594.47 320.024 1658 320.024C1721.53 320.05 1773 371.522 1773 435.024Z" fill="url(#paint13_linear_9056_4958)" fill-opacity="0.2"/>
</g>
</g>
</g>
<defs>
<filter id="filter0_fn_9056_4958" x="-100.71" y="-142.305" width="2120.68" height="822.447" filterUnits="userSpaceOnUse" color-interpolation-filters="sRGB">
<feFlood flood-opacity="0" result="BackgroundImageFix"/>
<feBlend mode="normal" in="SourceGraphic" in2="BackgroundImageFix" result="shape"/>
<feGaussianBlur stdDeviation="12" result="effect1_foregroundBlur_9056_4958"/>
<feTurbulence type="fractalNoise" baseFrequency="2 2" stitchTiles="stitch" numOctaves="3" result="noise" seed="595" />
<feColorMatrix in="noise" type="luminanceToAlpha" result="alphaNoise" />
<feComponentTransfer in="alphaNoise" result="coloredNoise1">
<feFuncA type="discrete" tableValues="0 0 0 0 0 0 0 0 0 0 0 0 1 1 1 1 1 1 1 1 1 1 1 1 1 1 1 1 1 1 1 1 1 1 1 1 1 1 0 0 0 0 0 0 0 0 0 0 0 0 0 0 0 0 0 0 0 0 0 0 0 0 0 0 0 0 0 0 0 0 0 0 0 0 0 0 0 0 0 0 0 0 0 0 0 0 0 0 0 0 0 0 0 0 0 0 0 0 0 0 "/>
</feComponentTransfer>
<feComposite operator="in" in2="effect1_foregroundBlur_9056_4958" in="coloredNoise1" result="noise1Clipped" />
<feFlood flood-color="#00000000" result="color1Flood" />
<feComposite operator="in" in2="noise1Clipped" in="color1Flood" result="color1" />
<feMerge result="effect2_noise_9056_4958">
<feMergeNode in="effect1_foregroundBlur_9056_4958" />
<feMergeNode in="color1" />
</feMerge>
</filter>
<filter id="filter1_ddddf_9056_4958" x="134.934" y="34.0242" width="304.066" height="308.123" filterUnits="userSpaceOnUse" color-interpolation-filters="sRGB">
<feFlood flood-opacity="0" result="BackgroundImageFix"/>
<feColorMatrix in="SourceAlpha" type="matrix" values="0 0 0 0 0 0 0 0 0 0 0 0 0 0 0 0 0 0 127 0" result="hardAlpha"/>
<feOffset dx="-3.04" dy="3.03965"/>
<feGaussianBlur stdDeviation="5.06608"/>
<feColorMatrix type="matrix" values="0 0 0 0 0.176471 0 0 0 0 0.219608 0 0 0 0 0.541176 0 0 0 0.1 0"/>
<feBlend mode="normal" in2="BackgroundImageFix" result="effect1_dropShadow_9056_4958"/>
<feColorMatrix in="SourceAlpha" type="matrix" values="0 0 0 0 0 0 0 0 0 0 0 0 0 0 0 0 0 0 127 0" result="hardAlpha"/>
<feOffset dx="-13.17" dy="14.185"/>
<feGaussianBlur stdDeviation="9.62555"/>
<feColorMatrix type="matrix" values="0 0 0 0 0.176471 0 0 0 0 0.219608 0 0 0 0 0.541176 0 0 0 0.09 0"/>
<feBlend mode="normal" in2="effect1_dropShadow_9056_4958" result="effect2_dropShadow_9056_4958"/>
<feColorMatrix in="SourceAlpha" type="matrix" values="0 0 0 0 0 0 0 0 0 0 0 0 0 0 0 0 0 0 127 0" result="hardAlpha"/>
<feOffset dx="-29.38" dy="31.4097"/>
<feGaussianBlur stdDeviation="12.6652"/>
<feColorMatrix type="matrix" values="0 0 0 0 0.176471 0 0 0 0 0.219608 0 0 0 0 0.541176 0 0 0 0.05 0"/>
<feBlend mode="normal" in2="effect2_dropShadow_9056_4958" result="effect3_dropShadow_9056_4958"/>
<feColorMatrix in="SourceAlpha" type="matrix" values="0 0 0 0 0 0 0 0 0 0 0 0 0 0 0 0 0 0 127 0" result="hardAlpha"/>
<feOffset dx="-51.67" dy="55.7269"/>
<feGaussianBlur stdDeviation="15.1982"/>
<feColorMatrix type="matrix" values="0 0 0 0 0.176471 0 0 0 0 0.219608 0 0 0 0 0.541176 0 0 0 0.01 0"/>
<feBlend mode="normal" in2="effect3_dropShadow_9056_4958" result="effect4_dropShadow_9056_4958"/>
<feBlend mode="normal" in="SourceGraphic" in2="effect4_dropShadow_9056_4958" result="shape"/>
<feGaussianBlur stdDeviation="13" result="effect5_foregroundBlur_9056_4958"/>
</filter>
<filter id="filter2_ddddf_9056_4958" x="-17.0665" y="332.024" width="220.066" height="224.124" filterUnits="userSpaceOnUse" color-interpolation-filters="sRGB">
<feFlood flood-opacity="0" result="BackgroundImageFix"/>
<feColorMatrix in="SourceAlpha" type="matrix" values="0 0 0 0 0 0 0 0 0 0 0 0 0 0 0 0 0 0 127 0" result="hardAlpha"/>
<feOffset dx="-3.04" dy="3.03965"/>
<feGaussianBlur stdDeviation="5.06608"/>
<feColorMatrix type="matrix" values="0 0 0 0 0.176471 0 0 0 0 0.219608 0 0 0 0 0.541176 0 0 0 0.1 0"/>
<feBlend mode="normal" in2="BackgroundImageFix" result="effect1_dropShadow_9056_4958"/>
<feColorMatrix in="SourceAlpha" type="matrix" values="0 0 0 0 0 0 0 0 0 0 0 0 0 0 0 0 0 0 127 0" result="hardAlpha"/>
<feOffset dx="-13.17" dy="14.185"/>
<feGaussianBlur stdDeviation="9.62555"/>
<feColorMatrix type="matrix" values="0 0 0 0 0.176471 0 0 0 0 0.219608 0 0 0 0 0.541176 0 0 0 0.09 0"/>
<feBlend mode="normal" in2="effect1_dropShadow_9056_4958" result="effect2_dropShadow_9056_4958"/>
<feColorMatrix in="SourceAlpha" type="matrix" values="0 0 0 0 0 0 0 0 0 0 0 0 0 0 0 0 0 0 127 0" result="hardAlpha"/>
<feOffset dx="-29.38" dy="31.4097"/>
<feGaussianBlur stdDeviation="12.6652"/>
<feColorMatrix type="matrix" values="0 0 0 0 0.176471 0 0 0 0 0.219608 0 0 0 0 0.541176 0 0 0 0.05 0"/>
<feBlend mode="normal" in2="effect2_dropShadow_9056_4958" result="effect3_dropShadow_9056_4958"/>
<feColorMatrix in="SourceAlpha" type="matrix" values="0 0 0 0 0 0 0 0 0 0 0 0 0 0 0 0 0 0 127 0" result="hardAlpha"/>
<feOffset dx="-51.67" dy="55.7269"/>
<feGaussianBlur stdDeviation="15.1982"/>
<feColorMatrix type="matrix" values="0 0 0 0 0.176471 0 0 0 0 0.219608 0 0 0 0 0.541176 0 0 0 0.01 0"/>
<feBlend mode="normal" in2="effect3_dropShadow_9056_4958" result="effect4_dropShadow_9056_4958"/>
<feBlend mode="normal" in="SourceGraphic" in2="effect4_dropShadow_9056_4958" result="shape"/>
<feGaussianBlur stdDeviation="5" result="effect5_foregroundBlur_9056_4958"/>
</filter>
<filter id="filter3_ddddf_9056_4958" x="1759" y="143.927" width="188.07" height="192.123" filterUnits="userSpaceOnUse" color-interpolation-filters="sRGB">
<feFlood flood-opacity="0" result="BackgroundImageFix"/>
<feColorMatrix in="SourceAlpha" type="matrix" values="0 0 0 0 0 0 0 0 0 0 0 0 0 0 0 0 0 0 127 0" result="hardAlpha"/>
<feOffset dx="3.03965" dy="3.03965"/>
<feGaussianBlur stdDeviation="5.06608"/>
<feColorMatrix type="matrix" values="0 0 0 0 0.176471 0 0 0 0 0.219608 0 0 0 0 0.541176 0 0 0 0.1 0"/>
<feBlend mode="normal" in2="BackgroundImageFix" result="effect1_dropShadow_9056_4958"/>
<feColorMatrix in="SourceAlpha" type="matrix" values="0 0 0 0 0 0 0 0 0 0 0 0 0 0 0 0 0 0 127 0" result="hardAlpha"/>
<feOffset dx="13.1718" dy="14.185"/>
<feGaussianBlur stdDeviation="9.62555"/>
<feColorMatrix type="matrix" values="0 0 0 0 0.176471 0 0 0 0 0.219608 0 0 0 0 0.541176 0 0 0 0.09 0"/>
<feBlend mode="normal" in2="effect1_dropShadow_9056_4958" result="effect2_dropShadow_9056_4958"/>
<feColorMatrix in="SourceAlpha" type="matrix" values="0 0 0 0 0 0 0 0 0 0 0 0 0 0 0 0 0 0 127 0" result="hardAlpha"/>
<feOffset dx="29.3833" dy="31.4097"/>
<feGaussianBlur stdDeviation="12.6652"/>
<feColorMatrix type="matrix" values="0 0 0 0 0.176471 0 0 0 0 0.219608 0 0 0 0 0.541176 0 0 0 0.05 0"/>
<feBlend mode="normal" in2="effect2_dropShadow_9056_4958" result="effect3_dropShadow_9056_4958"/>
<feColorMatrix in="SourceAlpha" type="matrix" values="0 0 0 0 0 0 0 0 0 0 0 0 0 0 0 0 0 0 127 0" result="hardAlpha"/>
<feOffset dx="51.674" dy="55.7269"/>
<feGaussianBlur stdDeviation="15.1982"/>
<feColorMatrix type="matrix" values="0 0 0 0 0.176471 0 0 0 0 0.219608 0 0 0 0 0.541176 0 0 0 0.01 0"/>
<feBlend mode="normal" in2="effect3_dropShadow_9056_4958" result="effect4_dropShadow_9056_4958"/>
<feBlend mode="normal" in="SourceGraphic" in2="effect4_dropShadow_9056_4958" result="shape"/>
<feGaussianBlur stdDeviation="7" result="effect5_foregroundBlur_9056_4958"/>
</filter>
<filter id="filter4_ddddf_9056_4958" x="1519" y="296.024" width="336.07" height="340.124" filterUnits="userSpaceOnUse" color-interpolation-filters="sRGB">
<feFlood flood-opacity="0" result="BackgroundImageFix"/>
<feColorMatrix in="SourceAlpha" type="matrix" values="0 0 0 0 0 0 0 0 0 0 0 0 0 0 0 0 0 0 127 0" result="hardAlpha"/>
<feOffset dx="3.03965" dy="3.03965"/>
<feGaussianBlur stdDeviation="5.06608"/>
<feColorMatrix type="matrix" values="0 0 0 0 0.176471 0 0 0 0 0.219608 0 0 0 0 0.541176 0 0 0 0.1 0"/>
<feBlend mode="normal" in2="BackgroundImageFix" result="effect1_dropShadow_9056_4958"/>
<feColorMatrix in="SourceAlpha" type="matrix" values="0 0 0 0 0 0 0 0 0 0 0 0 0 0 0 0 0 0 127 0" result="hardAlpha"/>
<feOffset dx="13.1718" dy="14.185"/>
<feGaussianBlur stdDeviation="9.62555"/>
<feColorMatrix type="matrix" values="0 0 0 0 0.176471 0 0 0 0 0.219608 0 0 0 0 0.541176 0 0 0 0.09 0"/>
<feBlend mode="normal" in2="effect1_dropShadow_9056_4958" result="effect2_dropShadow_9056_4958"/>
<feColorMatrix in="SourceAlpha" type="matrix" values="0 0 0 0 0 0 0 0 0 0 0 0 0 0 0 0 0 0 127 0" result="hardAlpha"/>
<feOffset dx="29.3833" dy="31.4097"/>
<feGaussianBlur stdDeviation="12.6652"/>
<feColorMatrix type="matrix" values="0 0 0 0 0.176471 0 0 0 0 0.219608 0 0 0 0 0.541176 0 0 0 0.05 0"/>
<feBlend mode="normal" in2="effect2_dropShadow_9056_4958" result="effect3_dropShadow_9056_4958"/>
<feColorMatrix in="SourceAlpha" type="matrix" values="0 0 0 0 0 0 0 0 0 0 0 0 0 0 0 0 0 0 127 0" result="hardAlpha"/>
<feOffset dx="51.674" dy="55.7269"/>
<feGaussianBlur stdDeviation="15.1982"/>
<feColorMatrix type="matrix" values="0 0 0 0 0.176471 0 0 0 0 0.219608 0 0 0 0 0.541176 0 0 0 0.01 0"/>
<feBlend mode="normal" in2="effect3_dropShadow_9056_4958" result="effect4_dropShadow_9056_4958"/>
<feBlend mode="normal" in="SourceGraphic" in2="effect4_dropShadow_9056_4958" result="shape"/>
<feGaussianBlur stdDeviation="12" result="effect5_foregroundBlur_9056_4958"/>
</filter>
<linearGradient id="paint0_linear_9056_4958" x1="960" y1="0" x2="960" y2="717" gradientUnits="userSpaceOnUse">
<stop offset="0.301901" stop-color="#2D388A"/>
<stop offset="0.622469" stop-color="#636FC7"/>
<stop offset="0.9375" stop-color="#AFBAF8"/>
</linearGradient>
<linearGradient id="paint1_linear_9056_4958" x1="22.4092" y1="-58.8209" x2="1679.13" y2="917.679" gradientUnits="userSpaceOnUse">
<stop stop-color="#636FC7"/>
<stop offset="0.514423" stop-color="#AFBAF8" stop-opacity="0.12"/>
<stop offset="1" stop-color="#636FC7"/>
</linearGradient>
<linearGradient id="paint2_linear_9056_4958" x1="373" y1="186.025" x2="200" y2="124.025" gradientUnits="userSpaceOnUse">
<stop stop-color="#636FC7"/>
<stop offset="1" stop-color="#2D388A"/>
</linearGradient>
<radialGradient id="paint3_radial_9056_4958" cx="0" cy="0" r="1" gradientUnits="userSpaceOnUse" gradientTransform="translate(359 163.525) rotate(-156.098) scale(48.1274)">
<stop stop-color="white" stop-opacity="0.6"/>
<stop offset="1" stop-color="white" stop-opacity="0"/>
</radialGradient>
<linearGradient id="paint4_linear_9056_4958" x1="379.513" y1="199.603" x2="250.056" y2="129.397" gradientUnits="userSpaceOnUse">
<stop stop-color="#AFBAF8" stop-opacity="0.5"/>
<stop offset="1" stop-color="#2D388A" stop-opacity="0.5"/>
</linearGradient>
<linearGradient id="paint5_linear_9056_4958" x1="168.518" y1="389.171" x2="52.2575" y2="418.959" gradientUnits="userSpaceOnUse">
<stop stop-color="#636FC7"/>
<stop offset="1" stop-color="#2D388A"/>
</linearGradient>
<radialGradient id="paint6_radial_9056_4958" cx="0" cy="0" r="1" gradientUnits="userSpaceOnUse" gradientTransform="translate(157.735 409.616) rotate(164.497) scale(31.4302)">
<stop stop-color="white" stop-opacity="0.6"/>
<stop offset="1" stop-color="white" stop-opacity="0"/>
</radialGradient>
<linearGradient id="paint7_linear_9056_4958" x1="171.131" y1="433.178" x2="86.5873" y2="387.329" gradientUnits="userSpaceOnUse">
<stop stop-color="#AFBAF8" stop-opacity="0.5"/>
<stop offset="1" stop-color="#2D388A" stop-opacity="0.5"/>
</linearGradient>
<linearGradient id="paint8_linear_9056_4958" x1="1772.8" y1="195.127" x2="1837.2" y2="222.327" gradientUnits="userSpaceOnUse">
<stop stop-color="#636FC7"/>
<stop offset="1" stop-color="#2D388A"/>
</linearGradient>
<radialGradient id="paint9_radial_9056_4958" cx="0" cy="0" r="1" gradientUnits="userSpaceOnUse" gradientTransform="translate(1788.91 198.177) rotate(22.1844) scale(26.8816)">
<stop stop-color="white" stop-opacity="0.6"/>
<stop offset="1" stop-color="white" stop-opacity="0"/>
</radialGradient>
<linearGradient id="paint10_linear_9056_4958" x1="1786.78" y1="194.2" x2="1851.02" y2="219.733" gradientUnits="userSpaceOnUse">
<stop stop-color="#AFBAF8" stop-opacity="0.5"/>
<stop offset="1" stop-color="#2D388A" stop-opacity="0.5"/>
</linearGradient>
<linearGradient id="paint11_linear_9056_4958" x1="1542.5" y1="413.025" x2="1703.5" y2="481.025" gradientUnits="userSpaceOnUse">
<stop stop-color="#636FC7"/>
<stop offset="1" stop-color="#2D388A"/>
</linearGradient>
<radialGradient id="paint12_radial_9056_4958" cx="0" cy="0" r="1" gradientUnits="userSpaceOnUse" gradientTransform="translate(1582.77 420.649) rotate(22.1844) scale(67.2041)">
<stop stop-color="white" stop-opacity="0.6"/>
<stop offset="1" stop-color="white" stop-opacity="0"/>
</radialGradient>
<linearGradient id="paint13_linear_9056_4958" x1="1577.45" y1="410.707" x2="1738.04" y2="474.54" gradientUnits="userSpaceOnUse">
<stop stop-color="#AFBAF8" stop-opacity="0.5"/>
<stop offset="1" stop-color="#2D388A" stop-opacity="0.5"/>
</linearGradient>
<clipPath id="clip0_9056_4958">
<rect width="1920" height="600" fill="white"/>
</clipPath>
<clipPath id="clip1_9056_4958">
<rect width="1920" height="600" fill="white" transform="translate(-0.186523 -0.36377)"/>
</clipPath>
</defs>
</svg>
